<?xml version="1.0" standalone="no"?>
<!DOCTYPE svg PUBLIC "-//W3C//DTD SVG 1.1//EN" "http://www.w3.org/Graphics/SVG/1.1/DTD/svg11.dtd">
<svg xmlns="http://www.w3.org/2000/svg">
<metadata>Generated by Fontastic.me</metadata>
<defs>
<font id="untitled-font-5" horiz-adv-x="512">
<font-face font-family="untitled-font-5" units-per-em="512" ascent="480" descent="-32"/>
<missing-glyph horiz-adv-x="512" />

<glyph glyph-name="check-list-o" unicode="&#97;" d="M389 429l-256 0c-7 0-13-5-13-12l0-320c0-7 6-13 13-13l256 0c7 0 13 6 13 13l0 320c0 7-6 12-13 12z m-12-320l-232 0 0 295 232 0z m-30 230l-85 0c-7 0-13-6-13-13 0-7 6-12 13-12l85 0c7 0 13 5 13 12 0 7-6 13-13 13z m0-77l-85 0c-7 0-13-6-13-12 0-7 6-13 13-13l85 0c7 0 13 6 13 13 0 6-6 12-13 12z m-181 74c-5-4-6-12-1-18l18-21c3-3 6-5 10-5 0 0 0 0 1 0 4 1 7 3 9 6l33 53c4 6 2 14-4 18-6 3-13 1-17-4l-24-39-7 8c-4 6-12 6-18 2z m30-68c-10 0-18-8-18-18 0-11 8-19 18-19 11 0 19 8 19 19 0 10-8 18-19 18z m151-81l-85 0c-7 0-13-6-13-13 0-7 6-12 13-12l85 0c7 0 13 5 13 12 0 7-6 13-13 13z m-151 6c-10 0-18-8-18-19 0-10 8-18 18-18 11 0 19 8 19 18 0 11-8 19-19 19z"/>
<glyph glyph-name="chip" unicode="&#98;" d="M438 367c0 13-11 23-24 23l-38 0 0-47 38 0c13 0 24 11 24 24z m-24-44l-38 0 0-48 38 0c13 0 24 11 24 24 0 13-11 24-24 24z m0-68l-38 0 0-48 38 0c13 0 24 11 24 24 0 13-11 24-24 24z m0-68l-38 0 0-47 38 0c13 0 24 10 24 23 0 13-11 24-24 24z m-323 180c0-13 10-24 23-24l39 0 0 48-39 0c-13 0-23-11-23-24z m0-68c0-13 10-23 23-23l39 0 0 47-39 0c-13 0-23-11-23-24z m0-68c0-13 10-23 23-23l39 0 0 47-39 0c-13 0-23-11-23-24z m0-67c0-13 10-24 23-24l39 0 0 47-39 0c-13 0-23-10-23-23z m244 261l-141 0c-11 0-21-10-21-21l0-283c0-12 10-21 21-21l141 0c11 0 20 9 20 21l0 283c0 11-9 21-20 21z"/>
<glyph glyph-name="cloud" unicode="&#99;" d="M354 316c-8 0-15-1-21-4-6 36-36 63-73 63-41 0-74-33-74-74 0-1 0-2 0-3-1 0-1 0-2 0-22 0-40-18-40-40 0 0 0 0 0 0-3 1-7 1-10 1-19 0-34-15-34-34 0-19 15-26 34-26l220 0c32 0 58 26 58 59 0 32-26 58-58 58z"/>
<glyph glyph-name="dice" unicode="&#100;" d="M418 143l0 226c0 22-18 40-40 40l-225 0c-22 0-40-18-40-40l0-226c0-22 18-40 40-40l225 0c22 0 40 18 40 40z m-215 2c-17 0-30 14-30 30 0 17 13 30 30 30 17 0 30-13 30-30 0-16-13-30-30-30z m0 80c-17 0-30 14-30 31 0 16 13 30 30 30 17 0 30-14 30-30 0-17-13-31-30-31z m0 81c-17 0-30 13-30 30 0 16 13 30 30 30 17 0 30-14 30-30 0-17-13-30-30-30z m120-161c-16 0-30 14-30 30 0 17 14 30 30 30 17 0 31-13 31-30 0-16-14-30-31-30z m0 80c-16 0-30 14-30 31 0 16 14 30 30 30 17 0 31-14 31-30 0-17-14-31-31-31z m0 81c-16 0-30 13-30 30 0 16 14 30 30 30 17 0 31-14 31-30 0-17-14-30-31-30z"/>
<glyph glyph-name="disco" unicode="&#101;" d="M256 427c-90 0-163-73-163-162 0-90 73-163 163-163 90 0 163 73 163 163 0 89-73 162-163 162z m0-230c-37 0-67 30-67 68 0 37 30 67 67 67 37 0 67-30 67-67 0-38-30-68-67-68z m25 68c0-14-11-25-25-25-14 0-25 11-25 25 0 13 11 25 25 25 14 0 25-12 25-25z"/>
<glyph glyph-name="dress" unicode="&#102;" d="M331 189c-2 24-19 89-25 100-2 4-3 7-4 11-29-4-58-4-87 1-1-4-2-8-5-12-6-11-22-76-24-100-3-24-14-85-14-85 0 0 12-1 19 0 7 2 2-7 2-7 9-6 24 4 28-2 4-7 26-3 24-1-2 2 8 7 7 1-1-6 6-5 6-5 0 0 8-1 7 5-1 6 9 1 6-1-2-2 21-6 25 1 3 6 19-4 28 2 0 0-5 9 2 7 7-1 18 0 18 0 0 0-10 61-13 85z m-128 236c0 0 5-18 2-35-3-16 2-52 8-66 2-6 3-11 3-15 28-5 57-5 85-1 0 5 0 10 3 16 5 14 11 50 8 66-3 17 2 35 2 35l-2 1-6 3c0 0 0 1-1 1l0 0 0 0c-2 1-3 1-6 2-5 1-7 3-12 3-1 0-3 0-5-1 0 0 19-20-24-36-42 16-24 36-24 36-1 1-3 1-4 1-5 0-8-2-12-3-2 0-3-1-4-1l0 0 0 0c-3-1-4-3-4-3 0 0 0 0 0 0l-5-2z"/>
<glyph glyph-name="envelope-open" unicode="&#103;" d="M311 185c-6-5-12-8-16-11-4-3-9-5-16-8-6-3-13-4-18-4l-1 0c-6 0-12 1-18 4-7 3-12 5-16 8-4 3-10 6-16 11-15 11-44 31-84 59-7 4-13 9-18 14l0-134c0-8 3-14 8-19 6-6 12-8 20-8l249 0c8 0 14 2 19 8 6 5 8 11 8 19l0 134c-4-5-10-10-17-14-37-25-65-45-84-59z m101 120c0 4 0 8-2 12-2 3-4 7-6 10-5 8-12 15-21 21-42 30-69 48-79 55-1 1-4 3-7 6-4 2-7 4-9 6-3 2-6 3-9 6-4 2-7 3-10 4-3 1-6 2-8 2l-1 0c-2 0-5-1-8-2-3-1-7-2-10-4-3-3-6-4-9-6-2-2-5-4-9-6-4-3-6-5-7-6-10-7-25-17-45-31-19-13-31-21-34-24-7-5-14-11-20-19-7-9-10-16-10-24 0 0 0-1 0-2 0-1 0-1 0-2 0-7 3-15 10-23 6-8 13-15 20-20 3-2 15-11 34-24 20-13 34-24 45-31 1-1 3-2 7-5 4-3 7-5 9-7 3-1 6-3 9-5 3-2 7-4 10-5 3-1 6-1 8-1l1 0c2 0 5 0 8 1 3 1 6 3 10 5 3 2 6 4 9 5 2 2 5 4 9 7 3 3 6 4 7 5 10 7 37 26 79 55 9 6 16 13 21 21 3 4 4 7 6 11 2 3 2 7 2 12 0 0 0 1 0 1 0 1 0 1 0 2z"/>
<glyph glyph-name="envelope-open-o" unicode="&#104;" d="M388 339l0 1c-1 1-2 2-3 3-3 3-5 5-8 7-29 23-52 41-69 55-6 5-10 8-13 11-4 2-9 5-14 8-6 2-12 4-17 4l0 0c-5 0-11-2-17-4-5-3-10-6-14-8-3-3-7-6-13-11-17-14-40-32-69-55-3-2-5-4-8-7-1-1-2-2-3-3l0-1c-1 0-2-1-3-1-6-6-15-18-18-33l0-186c0-7 3-13 8-18 5-5 11-7 18-7l238 0c7 0 13 2 18 7 5 5 8 11 8 18l0 186c-3 15-12 27-18 33-1 0-2 1-3 1z m0-191l0-29c0-1-1-2-2-3-1-1-2-2-3-2l-238 0c-1 0-2 1-3 2-1 1-2 2-2 3l0 124c4-3 7-7 11-10 29-22 52-41 69-55 6-4 10-8 13-11 4-2 9-5 14-7 6-3 12-4 17-4l0 0c5 0 11 1 17 4 5 2 10 5 14 7 3 3 7 7 13 11 17 14 40 33 69 55 4 3 7 7 11 10z m0 143l0-2c0-6-3-13-8-21-5-8-10-14-16-19-21-16-42-33-65-51 0-1-2-2-5-5-3-2-6-4-8-6-1-1-4-3-7-5-3-2-6-3-8-4-2-1-5-2-7-2l0 0c-2 0-4 1-7 2-2 1-5 2-8 4-3 2-5 4-7 5-2 2-5 4-8 6-3 3-5 4-5 5-23 18-44 35-65 51-6 5-11 11-16 19-5 8-8 15-8 21l0 5c0 6 3 14 8 21 0 1 1 3 2 4 4 6 9 11 14 15 2 2 4 4 7 5 18 15 38 30 58 46 0 1 2 2 5 5 3 3 6 5 8 6 2 1 4 3 7 5 3 2 6 4 8 5 2 1 5 1 7 1l0 0c2 0 5 0 7-1 2-1 5-3 8-5 3-2 6-4 7-5 2-1 5-3 8-6 3-3 5-4 5-5 20-16 40-31 58-46 3-1 5-3 7-5 5-4 10-9 14-15 1-1 2-3 2-4 5-7 8-15 8-21l0-3z"/>
<glyph glyph-name="feedly" unicode="&#105;" d="M434 269l-149 149c-17 16-43 16-59 0l-148-148c-16-16-16-42 0-58l88-88c16-16 28-29 50-29l81 0c23 0 35 13 51 29l86 86c16 17 16 43 0 59m-219-94l-8 0c-2 0-5 2-7 4l-15 14c-1 2-1 5 0 6l67 67c2 2 5 2 6 0l23-22c2-2 2-5 0-7l-59-58c-1-2-5-4-7-4m66-26l-15-15c-1-1-5-3-7-3l-7 0c-3 0-6 2-8 3l-14 15c-2 2-2 4 0 6l22 23c2 1 5 1 7 0l22-23c2-2 2-4 0-6m0 177l-103-103c-2-2-5-4-7-4l-8 0c-2 0-5 2-7 4l-15 14c-1 2-1 5 0 6l112 112c1 1 4 1 6 0l22-23c2-2 2-5 0-6"/>
<glyph glyph-name="fingerprint" unicode="&#106;" d="M150 368c-3 0-5 1-7 3-3 4-3 9 0 13 1 1 25 24 63 37 36 12 91 16 154-29 4-3 4-8 1-12-2-4-8-5-12-2-45 32-91 41-136 26-35-12-57-33-57-33-2-2-4-3-6-3z m-14-67c-1 0-2 1-3 1-5 2-7 7-6 12 2 3 32 78 120 84 89 6 127-63 128-66 2-4 1-10-4-12-4-2-10-1-12 4-1 2-33 61-110 56-77-5-104-70-105-73-1-3-5-6-8-6z m238-113c-1 0-2 1-3 1-5 1-7 6-6 11 15 47-3 96-3 97-1 5 1 10 6 12 5 1 10-1 11-6 1-2 20-56 3-108-1-4-4-7-8-7z m-4-39c-2 0-4 1-6 2-41 32-33 56-30 61 12 39 11 74-6 99-13 21-36 33-66 36-57 5-80-37-91-58-1-3-3-5-4-7-9-15-29-25-31-27-4-2-10 0-12 4-2 5-1 10 4 12 4 3 18 12 24 21 1 1 2 3 3 6 11 20 39 74 108 67 36-3 64-19 81-44 19-30 21-71 7-115l-1-1 0-1c-1-2-4-16 26-39 4-3 4-8 1-12-1-3-4-4-7-4z m-26-19c-1 0-2 0-3 1-49 19-46 71-37 96 10 36 1 56 0 56-9 20-28 33-49 33-21 1-40-11-52-32-20-37-63-72-64-73-4-3-10-3-13 1-3 4-3 10 1 13 0 0 42 34 60 68 15 27 41 42 69 42 28-1 52-18 65-44 0-1 12-26 0-69l0 0c-1-2-18-57 27-74 4-2 7-8 5-12-2-4-5-6-9-6z m-168-20c-3 0-5 1-7 4-3 4-3 9 1 12 1 1 2 1 3 2 50 35 77 66 91 87 28 41 8 61 5 63-6 4-12 4-19 2-17-6-32-31-36-40-25-49-75-71-77-72-4-2-10 0-12 5-2 5 1 10 5 12 1 0 46 20 67 63 1 2 19 40 48 49 11 4 22 3 33-3l1-1c1 0 40-29 0-88-15-22-44-56-95-92-1 0-2-1-3-1-1-1-3-2-5-2z m-27 23c-3 0-6 1-8 4-3 5-1 10 3 13 1 0 68 40 101 107 3 4 8 6 13 4 4-3 6-8 4-13-37-71-106-112-109-114-1-1-3-1-4-1z m158-28c-2 0-4 0-5 1-40 29-36 65-28 80 2 4 8 6 12 4 5-3 6-8 4-12-1-2-15-30 22-57 4-3 5-8 2-13-1-2-4-3-7-3z m-38-11c-2 0-5 1-6 2-21 20-49 6-49 6-5-2-10 0-13 4-2 4 0 10 4 12 2 1 40 20 70-8 4-4 4-10 0-13-1-2-4-3-6-3z"/>
<glyph glyph-name="google-drive" unicode="&#107;" d="M204 392l-105-181 47-86 106 183z m208-185l-210-1-50-86 209 0z m-104 187l-97 0 103-180 99 0z"/>
<glyph glyph-name="popsicle" unicode="&#108;" d="M256 442c-40 0-73-32-73-72l0-141c0-6 5-11 12-11l122 0c7 0 12 5 12 11l0 141c0 40-33 72-73 72z m-19-351c0-6 5-11 12-11l14 0c7 0 12 5 12 11l0 101-38 0z"/>
<glyph glyph-name="tools" unicode="&#109;" d="M404 394c-2 1-3 3-3 3l-3 3c-2 2-11-1-19-7l-22-14c-9-6-17-15-18-20-1-6-2-10-2-10l-44-44 16-16 44 44 10 2c5 1 14 9 20 18l14 22c6 8 9 17 7 19z m-172-177l-12 11m-6 7l-11 11c0 0 0 0-1-1l-8-8-65-65c-13-13-13-34 0-47 13-13 34-13 47 0l73 74c1 0 1 0 1 0l-11 11m-63-85l220 59c0 0-101 101-142 142 0 6 0 13-1 19-2 14-8 27-18 38-15 14-34 20-53 19-10-1-12-10-5-17l25-26c6-5 6-15 0-21l-16-16c-6-6-16-6-22-1l-26 27c-7 7-17 5-18-5-2-20 4-40 19-56 12-11 27-18 42-19 6 0 12 0 18 1l141-141c8-8 18-12 28-12 11 0 20 4 28 12 15 15 15 40 0 56z m-12-44c-8-8-21-8-29 0-8 8-8 21 0 29 8 8 21 8 29 0 8-8 8-21 0-29z"/>
<glyph glyph-name="wallet" unicode="&#110;" d="M368 318c-15 0-27-12-27-27l0-18c0-15 12-28 27-28l64 0 0 73z m18-50c-7 0-13 6-13 14 0 7 6 13 13 13 8 0 14-6 14-13 0-8-6-14-14-14z m26 147l-305 0c-26 0-47-21-47-47l0-225c0-18 15-33 34-33l304 0c19 0 34 15 34 33l0 89-64 0c-22 0-40 18-40 41l0 18c0 22 18 40 40 40l64 0 0 24c0 15-12 27-27 27l-305 0c-3 0-6 3-6 6 0 4 3 7 6 7l305 0c22 0 40-18 40-40l0-204c12 9 20 23 20 39l0 172c0 29-24 53-53 53z m-44-97c-15 0-27-12-27-27l0-18c0-15 12-28 27-28l64 0 0 73z m18-50c-7 0-13 6-13 14 0 7 6 13 13 13 8 0 14-6 14-13 0-8-6-14-14-14z m-18 50c-15 0-27-12-27-27l0-18c0-15 12-28 27-28l64 0 0 73z m18-50c-7 0-13 6-13 14 0 7 6 13 13 13 8 0 14-6 14-13 0-8-6-14-14-14z"/>
<glyph glyph-name="python" unicode="&#111;" d="M217 271l77 0c22 0 39 18 39 39l0 74c0 21-18 37-39 40-13 2-27 3-40 3-13 0-26-1-37-3-33-6-39-18-39-40l0-30 78 0 0-9-107 0c-22 0-42-14-48-40-7-29-7-47 0-78 5-23 19-40 41-40l27 0 0 36c0 25 22 48 48 48z m-5 103c-8 0-14 7-14 15 0 8 6 15 14 15 8 0 15-7 15-15 0-8-7-15-15-15z m199-69c-6 23-17 40-39 40l-29 0 0-35c0-26-23-49-49-49l-77 0c-21 0-39-18-39-39l0-74c0-21 19-33 39-39 25-7 48-9 77 0 20 5 39 17 39 39l0 30-77 0 0 9 116 0c22 0 31 16 39 40 8 24 7 47 0 78z m-112-147c8 0 15-7 15-15 0-8-7-14-15-14-8 0-14 6-14 14 0 8 6 15 14 15z"/>
<glyph glyph-name="hamburguer" unicode="&#112;" d="M411 170l-307 0c-2 0-4-2-4-4l0-23c0-13 11-24 25-24l266 0c13 0 24 11 24 24l0 23c0 2-1 4-4 4z m1 64l-308 0c-13 0-23-12-23-26 0-14 10-26 23-26l308 0c13 0 23 12 23 26 0 14-10 26-23 26z m-308 38l308 0c2 0 3 2 3 4 0 0 0 0 0 0 0 41-16 75-46 98-28 21-66 32-111 32-45 0-83-11-111-32-31-23-47-57-47-98 0-2 2-4 4-4z m-15-30l338 0c4 0 8 3 8 8 0 5-4 8-8 8l-338 0c-5 0-9-3-9-8 0-5 4-8 9-8z"/>
<glyph glyph-name="hexagon" unicode="&#113;" d="M102 193c0-11 7-24 16-29l121-70c9-6 24-6 34 0l121 70c9 5 16 18 16 29l0 139c0 11-7 24-16 29l-121 70c-10 6-25 6-34 0l-121-70c-9-5-16-18-16-29z"/>
<glyph glyph-name="rain" unicode="&#114;" d="M306 178c1 0 2-2 1-5l-25-70c-1-3-3-5-5-4-2 1-2 3-1 6l24 68c1 3 4 5 6 5z m-33 0c-2 0-4-2-5-5l-24-68c-1-3-1-5 1-6 1 0 4 1 5 4l25 70c1 3 0 5-2 5z m-32 0c-2 0-4-2-5-5l-25-68c-1-3 0-5 1-6 2 0 4 1 5 4l26 70c1 3 0 5-2 5z m-32 0c-2 0-4-2-5-5l-25-68c-1-3 0-5 1-6 2 0 4 1 5 4l25 70c1 3 1 5-1 5z m129 0c-2 0-4-2-5-5l-25-68c-1-3 0-5 1-6 2 0 4 1 5 4l26 70c1 3 0 5-2 5z m-161 0c-2 0-5-2-6-5l-24-68c-1-3-1-5 1-6 2 0 4 1 5 4l25 70c1 3 0 5-1 5z m177 136c-8 0-15-1-21-4-6 36-36 63-73 63-41 0-74-33-74-74 0-1 0-2 0-3-1 0-1 0-2 0-22 0-40-17-40-40 0 0 0 0 0 0-3 1-7 1-10 1-19 0-34-15-34-34 0-19 15-26 34-26l220 0c32 0 58 26 58 59 0 32-26 58-58 58z"/>
<glyph glyph-name="wind" unicode="&#115;" d="M381 277c0 25-20 46-46 46-25 0-46-21-46-46 0-8 6-13 13-13 8 0 13 5 13 13 0 11 9 19 20 19 11 0 20-8 20-19 0-15-12-27-26-27l-204 0c-7 0-13-5-13-13 0-7 6-13 13-13l204 0c29 0 52 24 52 53z m-259 1l73 0c25 0 44 20 44 44 1 22-17 39-38 39-22 0-39-17-39-39 0-5 4-10 10-10 5 0 9 5 9 10 0 11 9 19 20 19 10 0 19-8 19-19 0-14-11-25-25-25l-73 0c-5 0-10-4-10-10 0-5 5-9 10-9z m246-77l-190 0c-7 0-13-6-13-13 0-7 6-13 13-13l190 0c15 0 26-12 26-26 0-11-9-20-19-20-11 0-20 9-20 20 0 7-6 13-13 13-8 0-13-6-13-13 0-25 20-46 46-46 25 0 46 21 46 46 0 29-24 52-53 52z"/>
<glyph glyph-name="ruby" unicode="&#116;" d="M120 395l-63-81 89 0z m276-4l-18-77 77 0z m-92-273l148 166-82 0z m-243 166l159-173-64 173z m290 46l19 80 3 14-94-2 10-12z m-179-1l58 81 8 11-94-2 3-9z m15-45l73-196 78 196z m139 30l-67 86-61-86z"/>
<glyph glyph-name="higheal" unicode="&#117;" d="M156 292c1 0 2 0 3-1 26-13 66-54 82-95 16-38 18-65 20-81l0-4c1-9 16-13 42-13 28 0 67 5 116 15 4 9 19 54 26 107 0 0 0 0 0 1-7 4-27 16-33 29-1 2-1 3-2 5 0 6-14 9-36 9-5 0-9 0-11 0-3-3-16-14-35-14-14 0-28 6-41 17-39 34-167 150-171 154 0 0 0 0-2 0-2 0-7-2-12-15-2-4-3-8-5-12-11-24-26-56 1-92 30-40 22-173 21-196l17 0c-1 27-4 166 14 183 2 3 4 3 6 3z"/>
<glyph glyph-name="ice-cream" unicode="&#118;" d="M313 261l-115 0c-10 0-15-7-12-17l64-177c4-10 9-10 13 0l62 177c4 10-2 17-12 17m-124 10l129 0c10 0 28 2 33 10 8 14 2 37-11 47-8 6-13 13-12 23 2 17-5 27-13 33-8 6-13 15-13 25 0 26-23 42-45 42-6 0-11-1-15-2-8-3-5-9 0-11 2-1 4-3 4-8 0-11-13-11-26-24-2-2-3-9 10-14 13-5 24-13 38-15 10-2 11-3 0-3-17-1-27 14-52 15-3 0-21 3-26-23-2-10 7-19 16-23 20-6 35-18 62-19 10 0 10-2 0-2-45-1-94 46-108-6-3-9-4-25 0-33 4-8 19-12 29-12"/>
<glyph glyph-name="ruby-o" unicode="&#119;" d="M461 310c0 1-1 1-1 2 0 1 0 1-1 1 0 1 0 1 0 2l-78 102c-1 0-1 0-1 0 0 1 0 1-1 2 0 0 0 0-1 0 0 0-1 1-1 1 0 0-1 0-1 0 0 1-1 1-2 1 0 0 0 0 0 0-1 1-2 1-3 1 0 0 0 0 0 0l-214 0c-3 0-7-2-9-5l-80-102c0-1 0-1-1-2 0 0 0 0 0-1-1-1-1-1-1-2 0 0 0-1 0-1 0-1 0-2 0-3 0 0 0 0 0-1 0-1 0-1 1-2 0 0 0-1 0-1 0-1 1-2 2-3l0 0 189-205c1 0 1-1 2-1 0 0 0 0 0-1 1 0 2-1 3-1 0 0 0 0 0 0 2 0 2-1 3-1 1 0 1 0 1 0 1 0 2 1 3 1 0 0 1 0 1 0 1 0 1 1 2 1 0 0 1 0 1 1 0 0 1 1 2 1l182 205c0 1 1 1 1 2 0 0 1 1 1 1 0 1 0 1 1 2 0 0 0 1 0 1 0 1 0 1 0 2 0 1 0 1 0 2 0 0 0 1 0 1z m-105 88l-15-65-51 65z m-90-8l55-71-105 0z m-24 8l-46-66-21 66z m-88-13l20-66-72 0z m-49-90l77 0 52-140z m162-159l-59 159 122 0z m36 25l53 134 66 0z m60 158l14 63 48-63z"/>
<glyph glyph-name="shirt" unicode="&#120;" d="M429 369l-128 33-3 0c-5 0-9-3-10-8-1-7-5-12-11-17-6-4-13-6-21-6-8 0-15 2-21 6-6 5-10 10-11 17-1 5-5 8-10 8l-3 0-129-33c-5-2-8-7-7-13l18-70c1-5 6-8 10-8l48 0 0-158c0-6 4-10 10-10l190 0c6 0 10 4 10 10l0 158 48 0c4 0 8 4 9 8l19 70c1 6-2 11-8 13z"/>
<glyph glyph-name="id-card" unicode="&#121;" d="M401 346l-290 0c-5 0-8-3-8-8l0-164c0-5 3-8 8-8l290 0c5 0 8 3 8 8l0 164c0 5-3 8-8 8z m-106-24c0 4 3 6 7 6l26 0c3 0 6-2 6-6l0-26c0-4-3-6-6-6l-26 0c-4 0-7 2-7 6z m-75-77c0-9-7-16-16-16l-68 0c-9 0-16 7-16 16l0 68c0 9 7 16 16 16l68 0c9 0 16-7 16-16z m18 77c0 4 3 6 6 6l26 0c4 0 7-2 7-6l0-26c0-4-3-6-7-6l-26 0c-3 0-6 2-6 6z m154-138l-154 0 0 17 154 0z m0 35l-154 0 0 18 154 0z m0 35l-154 0 0 18 154 0z m0 42c0-4-3-6-6-6l-27 0c-3 0-6 2-6 6l0 26c0 4 3 6 6 6l27 0c3 0 6-2 6-6z m-222-17c7 0 13 2 17 7 5 5 7 10 7 17 0 7-2 12-7 17-4 5-10 7-17 7-6 0-12-2-17-7-5-5-7-10-7-17 0-7 2-12 7-17 5-5 11-7 17-7z m43-19c0 3-1 5-1 7-1 2-2 4-3 6-1 2-2 4-4 5-1 2-3 3-5 4-2 0-5 1-7 1-1 0-2-1-3-2-1 0-3-1-5-3-1-1-4-2-6-3-3 0-6-1-9-1-3 0-5 1-8 1-3 1-5 2-7 3-2 2-3 3-5 3-1 1-2 2-2 2-3 0-5-1-7-1-2-1-4-2-6-4-1-1-2-3-4-5-1-2-2-4-2-6-1-2-2-4-2-7 0-2-1-5-1-7 0-2 0-4 0-6 0-5 1-9 4-12 4-3 8-5 13-5l55 0c5 0 9 2 12 5 3 3 5 7 5 12 0 2-1 4-1 6 0 2 0 5-1 7z"/>
<glyph glyph-name="java" unicode="&#122;" d="M207 167c-54-15 32-46 100-17-11 4-19 9-19 9-30-5-44-6-72-3-23 3-9 11-9 11z m92 29c-40-8-63-8-93-5-22 3-8 14-8 14-58-20 33-42 115-18-8 3-14 9-14 9z m32 168c0 0-119-29-63-95 17-19-4-37-4-37 0 0 43 22 23 50-18 26-32 38 44 82z m27-226c0 0 10-8-10-14-40-12-164-15-198 0-13 5 11 12 18 14 7 2 12 1 12 1-14 10-89-19-38-27 138-22 252 10 216 26z m-47 85c6 4 16 8 16 8 0 0-27-4-53-7-32-2-66-3-83 0-41 5 22 20 22 20 0 0-24 2-55-13-35-17 89-25 153-8z m15-42c0-1-1-2-1-2 87 23 55 81 13 66-3-1-5-4-5-4 0 0 2 1 7 2 21 4 51-28-14-62z m-73 64c-13 29-57 54 0 99 70 55 34 91 34 91 15-57-51-74-75-110-16-25 8-51 41-80z m76-144c-54-10-120-9-159-3 0 0 8-6 49-9 63-4 159 2 161 32 0 0-4-11-51-20z"/>
<glyph glyph-name="snapchat" unicode="&#65;" d="M417 333c0 6-1 12-2 17-1 7-3 14-6 20-4 7-8 13-14 18-8 8-18 14-29 17-10 3-20 3-31 3 0 0 0 0 0 0l-158 0c0 0 0 0 0 0-6 0-12 0-18-1-6 0-13-2-19-4-9-3-18-9-25-16-8-9-14-18-17-30-3-10-3-20-3-30l0-159c0-7 0-15 1-22 2-7 3-15 7-21 5-10 11-17 19-24 6-4 13-8 20-10 10-4 21-5 32-5 6 0 13 0 20 0 49 0 98-1 147 0 7 0 13 1 20 2 12 2 23 8 32 16 11 10 18 21 21 36 3 9 3 18 3 28l0 2c0 0 0 161 0 163z m-43-149c-2-5-13-9-30-12-2 0-3-3-4-7 0-2 0-4-1-6-1-1-2-2-4-2l0 0c-1 0-3 0-5 0-4 1-8 2-13 2-3 0-6 0-10-1-6-1-12-5-18-9-8-6-17-13-32-13 0 0-1 0-1 0-1 0-1 0-1 0-15 0-24 7-32 13-6 4-12 8-18 9-4 1-7 1-10 1-6 0-10-1-13-2-2 0-4 0-5 0-2 0-3 0-4 2-1 2-1 4-1 6-1 4-2 7-4 7-17 3-28 7-30 12 0 0 0 1 0 1 0 2 1 3 2 3 14 2 27 10 37 22 8 10 12 19 13 20 0 0 0 0 0 0 2 4 2 8 1 11-2 5-10 7-15 9-1 0-2 1-3 1-4 2-12 5-11 11 1 3 6 6 10 6 1 0 2 0 3-1 4-2 8-3 12-3 4 0 6 2 7 2 0 3-1 5-1 7l0 0c-1 16-2 36 3 48 15 34 48 37 58 37 0 0 4 0 4 0 0 0 0 0 0 0 10 0 42-3 58-37 5-12 4-32 3-48l0-1c0-2-1-4-1-6 1 0 3-2 7-2 3 0 7 1 11 3 1 1 3 1 4 1 1 0 3 0 4-1l0 0c3-1 6-4 6-6 0-3-2-6-11-10-1 0-2-1-3-1-5-2-13-4-15-9-1-3-1-7 1-11 0 0 0 0 0 0 1-2 16-36 50-42 1 0 2-1 2-3 0 0 0-1 0-1z"/>
<glyph glyph-name="layers" unicode="&#66;" d="M447 199l-28 12-141-59c-7-3-14-4-22-4-8 0-15 1-22 4l-141 59-28-12c-2-1-3-2-3-3 0-2 1-3 3-4l183-76c2-1 5-2 8-2 3 0 6 1 8 2l183 76c2 1 3 2 3 4 0 1-1 2-3 3z m0 69l-28 12-82-35-59-25c-7-2-14-4-22-4-8 0-15 2-22 4l-59 25-82 35-28-12c-2-1-3-2-3-4 0-1 1-2 3-3l74-31 109-46c2-1 5-1 8-1 3 0 6 0 8 1l109 46 74 31c2 1 3 2 3 3 0 2-1 3-3 4z m-382 62l28-12 46-19 45-19 37-16 27-11c2-1 5-1 8-1 3 0 6 0 8 1l27 11 37 16 45 19 46 19 28 12c2 1 3 2 3 3 0 1-1 3-3 4l-183 76c-2 1-5 1-8 1-3 0-6 0-8-1l-183-76c-2-1-3-3-3-4 0-1 1-2 3-3z"/>
<glyph glyph-name="snow" unicode="&#67;" d="M347 316c-7 0-14-2-20-4-6 35-36 62-73 62-41 0-74-33-74-74 0-1 0-1 0-2-1 0-2 0-3 0-22 0-40-18-40-40 0 0 0 0 0-1-3 1-6 2-10 2-18 0-34-15-34-34 0-19 16-26 34-26l220 0c32 0 59 26 59 58 0 33-27 59-59 59z m-188-135c0-3-3-5-6-5-3 0-5 2-5 5 0 3 2 6 5 6 3 0 6-3 6-6z m54-5c0-3-3-5-6-5-3 0-5 2-5 5 0 3 2 5 5 5 3 0 6-2 6-5z m-25-33c0-3-2-5-5-5-3 0-6 2-6 5 0 3 3 6 6 6 3 0 5-3 5-6z m113 44c0-3-2-6-5-6-3 0-5 3-5 6 0 3 2 5 5 5 3 0 5-2 5-5z m-30-33c0-3-2-5-5-5-3 0-6 2-6 5 0 3 3 6 6 6 3 0 5-3 5-6z m36-5c0-3-3-6-6-6-3 0-5 3-5 6 0 3 2 5 5 5 3 0 6-2 6-5z m-77-11c0-3-2-5-5-5-3 0-6 2-6 5 0 3 3 5 6 5 3 0 5-2 5-5z m41-26c0-3-2-5-5-5-3 0-6 2-6 5 0 3 3 6 6 6 3 0 5-3 5-6z m73 64c0-3-3-5-6-5-3 0-5 2-5 5 0 3 2 5 5 5 3 0 6-2 6-5z m-185-49c0-3-3-5-6-5-3 0-5 2-5 5 0 3 2 6 5 6 3 0 6-3 6-6z"/>
<glyph glyph-name="milk-bottle" unicode="&#68;" d="M298 92c8 0 14 6 14 14l0 172-112 0 0-39 34 0c5 0 9-4 9-9l0-2c0-5-4-9-9-9l-34 0 0-23 34 0c5 0 9-5 9-10l0-1c0-6-4-10-9-10l-34 0 0-69c0-8 6-14 14-14z m-72 277c-11-9-18-21-21-34l101 0c-2 13-9 25-20 34-2 1-3 3-5 5-8 9-11 21-9 32 0 2 0 3 0 5 0 12-7 21-16 21-9 0-16-9-16-21 0-2 0-3 0-5 2-11-1-23-9-32-2-2-4-4-5-5z m87-82c7 0 13 6 13 14l0 11c0 4-1 8-4 10-2 3-6 4-9 4l-114 0c-7 0-13-6-13-14l0-11c0-4 1-7 4-10 2-2 6-4 9-4z"/>
<glyph glyph-name="snow-flake" unicode="&#69;" d="M412 189l-40 23 34 20c5 3 7 10 4 16-3 5-10 6-15 3l-46-26-72 42 72 41 46-26c1-1 3-2 5-2 4 0 7 2 10 5 3 6 1 13-4 16l-34 20 40 23c5 3 7 10 4 16-3 5-10 7-15 4l-41-24 0 41c0 6-5 11-11 11-7 0-12-5-12-11l1-54-72-41 0 84 45 26c6 3 8 10 5 15-3 6-10 7-15 4l-35-19 0 46c0 6-5 11-11 11-6 0-11-5-11-11l0-47-36 20c-5 3-12 1-15-4-3-5-1-12 4-15l47-26 0-84-74 42 1 53c0 6-5 11-11 11l0 0c-6 0-12-5-12-11l0-40-39 23c-6 3-13 1-16-4-3-6-1-12 4-15l40-23-34-21c-6-3-8-10-4-16 2-3 5-5 9-5 2 0 4 1 6 2l46 27 73-42-73-43-46 27c-5 4-12 2-15-3-3-6-2-13 3-16l35-20-40-24c-5-3-7-9-4-15 3-4 6-6 10-6 1 0 3 1 6 2l39 23 0-40c1-6 6-11 12-11l0 0c6 0 11 6 11 12l-1 52 74 42 0-83-47-26c-5-3-7-10-4-16 2-3 5-5 10-5 2 0 4 0 5 1l36 20 0-47c0-6 5-11 11-11 6 0 11 5 11 11l0 46 35-19c1-1 3-1 5-1 4 0 8 2 10 5 3 6 1 13-5 16l-45 25 0 84 72-41-1-53c0-6 5-12 12-12 6 0 11 5 11 11l0 41 41-24c1 0 3-1 6-1 4 0 7 2 9 5 3 6 1 13-4 16z"/>
<glyph glyph-name="moon-cloud" unicode="&#70;" d="M362 313c-7 0-14-1-21-4-5 36-36 63-73 63-41 0-74-33-74-74 0-1 1-2 1-3-1 0-2 0-3 0-22 0-40-17-40-39 0-1 0-1 0-1-3 1-6 1-10 1-19 0-34-15-34-34 0-19 15-26 34-26l220 0c32 0 58 26 58 59 0 32-26 58-58 58z m-68-20c0 2-1 3-2 4-2 3-6 3-9 2-9-4-19-7-29-7-12 0-24 4-35 10-10 6-18 14-25 25-6 10-9 22-9 34 0 10 2 19 6 28 4 9 9 17 17 23 2 3 3 6 1 9-1 4-4 5-7 5-13 0-25-3-37-8-12-6-22-13-30-21-8-9-15-19-20-31-5-12-7-24-7-37 0-13 3-26 8-38 5-12 12-22 21-31 8-9 19-15 31-21 12-5 24-7 37-7 19 0 37 5 53 15 16 10 28 24 36 41 0 2 1 3 0 5z m-54-37c-11-6-22-8-35-8-11 0-21 2-31 6-10 5-19 10-26 18-7 7-13 15-17 25-5 10-7 21-7 32 0 18 6 34 16 49 11 14 25 24 42 29-9-14-13-29-13-46 0-15 4-29 11-42 8-13 18-24 31-31 13-8 28-12 43-12 5 0 9 1 14 1-8-9-17-16-28-21z"/>
<glyph glyph-name="sound-wave" unicode="&#71;" d="M443 278l-51 0c-4 0-10 3-12 7l-32 58c-3 6-9 9-16 8-6-1-11-6-12-12l-8-60c-1-4-2-11-2-16l-7-45c0-5-1-5-2 0l-9 46c0 4-2 11-2 16l-20 128c0 7-6 13-13 13-7 1-14-3-16-10l-36-136c-1-4-3-11-4-15l-8-28c-1-4-3-4-4 0l-7 27c-2 4-3 11-4 16l-10 56c-2 6-7 11-14 11-6 1-13-3-15-10l-18-48c-2-4-6-7-11-7l-41 0c-8 0-15-7-15-15 0-9 7-15 15-15l57 0c6 0 11 3 13 9l1 2c2 4 5 9 6 12 1 3 2 3 2 0 1-2 2-8 3-12l27-102c1-7 7-12 13-12 7-1 14 3 16 10l22 107c1 5 3 11 4 16l14 52c2 4 3 4 4 0l9-51c0-4 1-11 2-16l24-158c1-7 7-13 14-13l1 0c7 0 13 5 14 12l23 163c1 4 2 11 3 15 0 4 3 4 5 1l11-18c2-4 4-7 5-8 2-5 7-8 13-8l68 0c8 0 15 7 15 15 0 8-7 15-15 15z"/>
<glyph glyph-name="my-sql" unicode="&#72;" d="M85 205l12 0 0 45 18-40c2-4 5-6 10-6 6 0 9 2 11 6l18 40 0-45 11 0 0 45c0 5-2 7-5 8-9 2-15 0-18-6l-17-39-17 39c-3 6-9 9-17 6-4-1-6-3-6-8z m90 37l11 0 0-25c0-2 1-5 7-5 3 0 25 0 25 0l0 30 12 0c0 0 0-41 0-41 0-10-13-12-19-12l-36 0 0 7c0 0 36 0 36 0 8 1 7 5 7 6l0 3-24 0c-12 0-19 5-19 11 0 0 0 25 0 26z m64-37l33 0c4 0 7 0 10 2 5 2 8 5 8 9l0 9c0 3-3 6-8 8-3 1-7 2-10 2l-14 0c-5 0-7 1-8 4 0 1 0 1 0 1l0 6c0 0 0 0 0 1 1 2 2 3 6 3 1 0 1 0 1 0l33 0 0 8-32 0c-5 0-7 0-9-1-7-2-10-6-10-12l0-6c0-5 6-10 15-11 1 0 3 0 4 0l12 0c0 0 1 0 1 0 4 0 5-1 6-2 1-1 1-2 1-3l0-6c0-1 0-2-2-3-1-1-2-1-4-2-1 0-1 0-2 0l-31 0z m123 13c0-8 6-12 17-13 1 0 3 0 4 0l30 0 0 7-31 0c-6 0-9 2-9 6l0 40-11 0z m-65 0l0 27c0 7 5 11 15 13 1 0 2 0 3 0l22 0c1 0 2 0 3 0 9-2 14-6 14-13l0-27c0-6-2-9-7-11l12-10-14 0-9 8-9-1-12 0c-2 0-5 1-7 1-7 2-11 6-11 13z m13 0c0 0 0 0 0-1 0-3 3-5 8-5l10 0-9 9 13 0 9-8c1 1 2 2 2 4 1 0 1 1 1 1l0 26c0 1 0 1-1 1 0 3-3 5-8 5l-17 0c-5 0-8-2-8-6z m113 53c-7 0-13-1-17-3-2 0-4 0-4-2 1-1 1-2 2-3 1-2 3-4 4-5 2-2 4-3 6-4 3-2 7-4 11-6 1-1 3-3 5-4 1-1 2-2 3-2 0 0 0 0 0 0 0 1-1 2-1 3-1 1-2 2-3 2-2 4-6 7-9 9-3 2-9 5-10 8 0 0 0 0 0 0 2 1 4 1 6 2 3 1 5 0 8 1 2 1 3 1 5 1 0 1 0 1 0 1-2 2-3 4-5 5-4 4-9 8-14 11-3 2-6 3-9 5-1 0-3 1-4 1-2 2-2 5-4 7-2 5-5 10-7 16-1 3-2 6-4 10-9 15-19 24-34 33-4 2-8 2-12 3-2 0-4 1-6 1-2 0-3 2-4 3-5 3-18 10-22 1-3-6 3-12 5-15 2-2 4-4 5-6 1-2 1-3 1-5 2-4 3-8 5-12 1-2 2-4 3-5 1-1 2-2 2-3-1-2-1-5-2-7-3-10-2-22 3-30 1-2 5-7 9-5 4 2 3 7 4 11 1 1 1 2 1 3 0 0 0 0 0 0 1-3 2-5 4-8 2-4 7-9 11-12 2-1 4-4 7-5 0 0 0 0 0 0 0 0-1 0-1 0 0 1-1 2-2 2-1 2-3 4-4 5-4 5-7 11-10 17-2 2-3 5-4 8 0 1 0 3-1 3-2-2-4-3-5-6-1-4-1-8-2-13 0 0 0 0 0 0-3 0-4 3-5 6-3 6-3 16-1 23 1 2 3 8 2 10 0 1-2 2-3 4-1 1-2 4-3 5-2 5-3 11-6 16-1 2-3 4-4 7-2 2-4 4-5 6 0 1-1 3 0 4 0 1 0 1 1 1 1 1 4 0 6-1 3-1 5-2 8-4 2-1 3-3 4-3 1 0 2 0 2 0 3-1 6 0 9-1 5-1 9-4 13-6 11-7 21-18 27-30 1-2 2-4 3-6 1-5 4-9 6-13 1-4 3-9 6-12 1-2 7-3 9-4 2-1 4-1 6-2 3-2 6-4 9-6 1-1 6-4 6-5z m-90 76c-2 0-3 0-4 0 0 0 0 0 0 0 0 0 0 0 0 0 1-2 2-3 3-4 1-1 2-3 2-4 0 0 0 0 0 0 2 1 2 2 2 4 0 1 0 2-1 2 0 1-1 2-2 2z m85-134c0-6 4-9 9-9 4 0 8 3 8 9 0 5-4 8-8 8-5 0-9-3-9-8z m15 0c0-4-3-7-6-7-4 0-7 3-7 7 0 3 3 6 7 6 3 0 6-3 6-6z m-4-5l2 0-3 4c2 0 3 1 3 3 0 2-2 2-4 2l-4 0 0-9 2 0 0 4 1 0z m-4 5l0 3 2 0c1 0 2 0 2-1 0-2-1-2-2-2z m-339 76c1 0 2 0 4 0 3 0 4-1 5-2 1 0 2-2 2-3 0-2-1-3-2-4-1-1-3-2-5-2-1 0-1 0-2 0l0-7-2 0z m2-9c1 0 1 0 2 0 3 0 4 1 4 4 0 2-1 3-4 3-1 0-1 0-2 0z m23-3c0-4-3-6-6-6-3 0-6 2-6 6 0 4 3 7 6 7 4 0 6-3 6-7z m-10 0c0-2 2-5 4-5 2 0 4 2 4 5 0 2-1 5-4 5-3 0-4-2-4-5z m14 7l2-7c0-1 1-3 1-4l0 0c0 1 1 3 1 4l2 7 2 0 2-7c0-1 1-3 1-4l0 0c0 1 1 3 1 4l2 7 2 0-4-13-2 0-2 6c0 1-1 3-1 4l0 0c0-1-1-3-1-4l-2-6-2 0-4 13z m20-7c0-3 2-5 4-5 2 0 3 1 4 1l0-2c-1 0-2 0-4 0-4 0-6 2-6 6 0 4 2 7 6 7 4 0 5-4 5-6 0 0 0-1 0-1z m7 2c0 1-1 3-3 3-3 0-4-2-4-3z m5 1c0 1 0 3 0 4l2 0 0-3 0 0c1 2 2 3 4 3 0 0 0 0 0 0l0-2c0 0 0 0-1 0-1 0-2-1-3-3 0 0 0-1 0-1l0-7-2 0z m10-3c0-3 2-5 4-5 2 0 3 1 4 1l0-2c-1 0-2 0-4 0-4 0-6 2-6 6 0 4 2 7 6 7 4 0 5-4 5-6 0 0 0-1 0-1z m7 2c0 1-1 3-4 3-2 0-3-2-3-3z m16 11l0-16c0-1 0-2 0-3l-2 0 0 2 0 0c-1-1-3-2-5-2-3 0-5 2-5 6 0 4 2 7 5 7 2 0 4-1 4-2l0 0 0 8z m-3-11c0 0 0 0 0 0 0 2-1 3-3 3-2 0-4-2-4-5 0-2 1-4 4-4 1 0 3 1 3 2 0 1 0 1 0 1z m12 11l2 0 0-8 1 0c0 1 2 2 4 2 3 0 5-3 5-7 0-4-3-6-5-6-2 0-4 0-5 2l0 0 0-2-2 0c0 1 0 2 0 3z m2-14c0 0 0-1 1-1 0-1 1-2 3-2 3 0 4 1 4 4 0 3-1 5-4 5-1 0-3-1-3-3-1 0-1 0-1-1z m14 8l3-8c0-1 0-2 1-2l0 0c0 0 0 1 0 2l3 8 3 0-4-9c-2-5-3-7-4-8-2-1-3-2-3-2l-1 2c1 0 2 1 2 1 1 1 2 2 2 3 0 0 0 0 0 0 0 0 0 1 0 1l-5 12z"/>
<glyph glyph-name="floppy" unicode="&#73;" d="M426 352l-52 66c-5 6-14 10-22 10l-222 0c-5 0-11 0-15-1-2-1-8-4-8-21l0-284c0-5 1-11 2-14 1-3 4-9 21-9l281 0c5 0 11 1 15 2 2 1 8 4 8 21l0 209c0 7-3 16-8 21z m-275-28l0 94 187 0 0-103c0-17-14-31-31-31l-125 0c-17 0-31 14-31 31z m229-204l-229 0 0 88c0 13 10 23 23 23l175 0c6 0 14-1 19-4 11-5 12-27 12-27l0-80z m-128 199l39 0c6 0 10 5 10 11l0 70c0 6-4 11-10 11l-39 0c-5 0-10-5-10-11l0-70c0-6 5-11 10-11z m-91 92l0 0c0-1 0-1 0-1z"/>
<glyph glyph-name="storm" unicode="&#74;" d="M346 316c-8 0-15-1-21-4-6 36-36 63-73 63-41 0-74-33-74-74 0-1 0-2 0-3-1 0-1 0-2 0-22 0-40-18-40-40 0 0 0 0 0 0-3 1-7 1-10 1-19 0-34-15-34-34 0-19 15-26 34-26l220 0c32 0 58 26 58 59 0 32-26 58-58 58z m-64-161c1 2 0 3-2 3l-16 0c-2 0-3 2-2 4l10 20c1 2 0 4-2 4l-44 0c-2 0-4-2-5-4l-28-55c-1-2 0-4 2-4l20 0c2 0 3-2 3-3l-32-80c-1-1 0-2 1 0z"/>
<glyph glyph-name="footprint" unicode="&#75;" d="M256 153c6-25 7-35 3-47-5-12-19-17-22-17-1-1-7-2-14-2-13 0-24 6-30 18-5 9-7 17-10 25-4 11-8 24-20 42-4 7-8 13-11 18-11 16-16 24-24 44-8 19-17 44-17 56 0 8 3 12 5 14 1 1 3 2 4 3 0 4 2 8 6 11 2 1 4 2 6 3-1 3-1 6 1 10 1 3 3 6 7 7 2 1 3 1 5 2 0 2 1 5 2 8 2 3 6 5 9 6 4 1 7 1 9 0 1 3 2 6 4 9 3 3 7 7 15 7 23 1 27-19 28-26 1-4 1-8 1-11 0-5 0-9 2-11 1-2 2-3 3-5 4-8 11-19 14-29 1-7 0-17-3-29-2-14-5-30-2-43 2-11 8-20 14-30 6-10 12-21 15-33z m168 200c-1 10-6 15-10 16-1 4-3 8-7 11-2 1-4 2-6 2 0 3-1 7-2 9-2 4-5 6-9 7-1 1-3 1-5 1 0 3-1 6-3 8-2 3-6 5-10 5-3 1-6 0-9 0-1 2-2 5-4 7-4 4-9 6-15 6 0 0-1 0-1 0-23-2-24-22-25-30 0-3 0-7 0-10 1-5 1-9 0-12-1-1-1-3-2-5-4-8-9-19-11-30-1-7 2-17 5-29 3-14 7-30 6-42-1-11-5-21-10-32-4-11-9-22-10-34-4-26-3-36 3-47 6-11 20-14 23-15 1 0 4-1 9-1 16 0 28 8 33 23 4 9 5 17 7 25 3 12 6 25 15 45 4 7 7 13 9 18 9 18 13 26 19 47 5 20 12 46 10 57z"/>
<glyph glyph-name="palete-color" unicode="&#76;" d="M256 413c-87 0-157-70-157-157 0-87 70-157 157-157 14 0 26 12 26 26 0 7-2 12-7 17-3 6-7 11-7 18 0 14 12 26 26 26l32 0c49 0 87 38 87 87 0 77-70 140-157 140z m-96-157c-14 0-26 12-26 26 0 14 12 26 26 26 14 0 26-12 26-26 0-14-12-26-26-26z m52 70c-14 0-26 12-26 26 0 14 12 26 26 26 14 0 27-12 27-26 0-14-13-26-27-26z m88 0c-14 0-27 12-27 26 0 14 13 26 27 26 14 0 26-12 26-26 0-14-12-26-26-26z m52-70c-14 0-26 12-26 26 0 14 12 26 26 26 14 0 26-12 26-26 0-14-12-26-26-26z"/>
<glyph glyph-name="sun-cloud" unicode="&#77;" d="M354 316c-8 0-15-1-21-4-1 9-4 17-8 24l21 29c0 1 1 2 0 4 0 1-1 2-3 3l-41 13 0 44c0 1-1 2-2 3-1 1-3 1-4 1l-41-13-26 35c-1 1-2 1-4 1-1 0-3 0-3-1l-26-35-41 13c-2 0-3 0-4-1-2-1-2-2-2-3l0-44-42-13c-1-1-2-2-2-3-1-2-1-3 0-4l26-36-26-35c-1-1-1-2 0-4 0-1 1-2 2-3l40-13c-2-5-3-10-3-16 0 0 0 0 0 0-3 1-7 1-10 1-19 0-34-15-34-34 0-19 15-26 34-26l220 0c32 0 58 26 58 59 0 32-26 58-58 58z m-204-18c-4 10-6 20-6 31 0 12 2 22 6 32 4 10 10 19 18 26 7 8 16 13 26 18 10 4 20 6 31 6 11 0 22-2 32-6 10-5 19-10 26-18 7-7 12-15 17-24-12 7-25 12-40 12-41 0-74-33-74-74 0-1 0-2 0-3-1 0-1 0-2 0-11 0-21-4-28-11-2 3-4 7-6 11z"/>
<glyph glyph-name="glass" unicode="&#78;" d="M468 273c0 9-7 16-15 17l-7 1-87 64c-17 13-39 17-59 12-7-2-12-10-10-17 2-8 10-12 17-10 12 3 25 1 35-7l53-38c-11-1-22-1-32-3-17-2-33-6-49-10l-8-2c-32-6-66-6-98 0l-9 2c-17 4-33 8-49 10-11 2-22 2-33 3l53 38c10 8 23 10 35 7 7-2 15 2 17 10 2 7-2 15-10 17-20 5-42 1-59-12l-87-64-7-1c-8-1-15-8-15-17l-1-15c0-7 4-14 10-16 3-2 5-4 5-6l2-29c3-35 32-62 67-63l32-1c24 0 46 12 59 33l26 46c2 2 7 3 11 3 0 0 2 0 2 0 4 0 9-1 10-3l27-46c13-21 35-33 59-33l32 1c35 1 64 28 67 63l2 29c1 2 2 4 4 5 7 3 11 10 11 17z m-82-9c5 0 9 0 13-1 11-1 23-9 24-23l1-29c0-10-3-20-10-28-7-7-16-11-26-12 0 0-26-1-27-1-46 0-59 46-60 48-2 9 0 18 4 25 5 8 13 13 22 14 25 5 44 7 59 7z m-235-94c-1 0-26 1-26 1-11 1-20 5-27 12-7 8-10 18-10 28l1 29c1 14 13 22 24 23 15 2 39 0 72-6 9-1 17-6 22-14 4-7 6-16 4-25-1-2-14-48-60-48z"/>
<glyph glyph-name="php" unicode="&#79;" d="M344 290l-12 0-7-35 9 0c8 0 14 1 17 4 4 3 7 8 8 14 1 6 1 11-1 13-2 2-5 4-14 4z m-164 0l-12 0-7-35 10 0c7 0 13 1 17 4 3 3 6 8 7 14 1 7 1 11-1 13-2 2-5 4-14 4z m76 64c-97 0-176-40-176-89 0-49 79-89 176-89 97 0 176 40 176 89 0 49-79 89-176 89z m9-119c0 1 0 2 0 2l8 43c1 5 0 7 0 8-1 0-3 1-9 1l-14 0-10-53c0-1-2-2-3-2l-21 0c-1 0-1 0-2 1-1 1-1 2-1 2l4 20c-2-4-5-8-9-11-4-4-9-8-15-9-5-2-12-3-20-3l-16 0-4-23c-1-2-2-3-3-3l-21 0c-1 0-2 1-2 2-1 0-1 1-1 2l19 96c0 2 1 3 3 3l40 0c13 0 23-4 29-11 3-4 5-8 6-14l9 48c0 1 1 2 3 2l21 0c1 0 1 0 2-1 0-1 1-1 0-2l-4-22 15 0c13 0 21-3 26-7 6-5 7-13 5-23l-8-45c-1-1-2-2-3-2l-21 0c-1 0-2 0-3 1z m120 36c-1-5-3-10-5-14-2-4-5-8-9-11-5-4-10-8-15-9-6-2-12-3-21-3l-15 0-5-23c0-2-1-3-3-3l-21 0c0 0-1 1-2 2 0 0 0 1 0 2l18 96c1 2 2 3 3 3l41 0c12 0 22-4 28-11 6-7 8-17 6-29z"/>
<glyph glyph-name="thermometer" unicode="&#80;" d="M281 160l0 140c0 8-6 14-14 14-8 0-13-7-13-14l0-140c-17-5-28-20-28-38 0-23 18-41 41-41 24 0 41 18 41 41 0 18-11 33-27 38z m27 17l0 246c0 24-17 41-41 41-23 0-41-19-41-41l0-246c-16-13-27-33-27-55 0-38 30-69 68-69 39 0 69 31 69 69 0 22-11 42-28 55z m-41-110c-30 0-55 25-55 55 0 20 11 38 28 48l0 253c0 15 12 28 27 28 15 0 28-13 28-28l0-253c16-10 27-28 27-48 0-30-25-55-55-55z"/>
</font>
</defs>
</svg>
